<?xml version="1.0" encoding="utf-8" ?>
<svg xmlns="http://www.w3.org/2000/svg" xmlns:xlink="http://www.w3.org/1999/xlink" width="800" height="800" viewBox="0 0 800 800">
	<path fill="#E9E9E9" fill-opacity="0.90196079" d="M0 0L0 800L80 720L0 0Z"/>
	<path fill="#E9E9E9" fill-opacity="0.80000001" d="M0 0L80 720L160 640L0 0Z"/>
	<path fill="#E9E9E9" fill-opacity="0.7019608" d="M0 0L160 640L240 560L0 0Z"/>
	<path fill="#E9E9E9" fill-opacity="0.60000002" d="M0 0L240 560L320 480L0 0Z"/>
	<path fill="#E9E9E9" fill-opacity="0.50196081" d="M0 0L320 480L400 400L0 0Z"/>
	<path fill="#E9E9E9" fill-opacity="0.40000001" d="M0 0L400 400L480 320L0 0Z"/>
	<path fill="#E9E9E9" fill-opacity="0.3019608" d="M0 0L480 320L560 240L0 0Z"/>
	<path fill="#E9E9E9" fill-opacity="0.2" d="M0 0L560 240L640 160L0 0Z"/>
	<path fill="#E9E9E9" fill-opacity="0.10196079" d="M0 0L640 160L720 80L0 0Z"/>
	<path fill="#E9E9E9" fill-opacity="0.90196079" d="M800 800L800 0L720 80L800 800Z"/>
	<path fill="#E9E9E9" fill-opacity="0.80000001" d="M800 800L720 80L640 160L800 800Z"/>
	<path fill="#E9E9E9" fill-opacity="0.7019608" d="M800 800L640 160L560 240L800 800Z"/>
	<path fill="#E9E9E9" fill-opacity="0.60000002" d="M800 800L560 240L480 320L800 800Z"/>
	<path fill="#E9E9E9" fill-opacity="0.50196081" d="M800 800L480 320L400 400L800 800Z"/>
	<path fill="#E9E9E9" fill-opacity="0.40000001" d="M800 800L400 400L320 480L800 800Z"/>
	<path fill="#E9E9E9" fill-opacity="0.3019608" d="M800 800L320 480L240 560L800 800Z"/>
	<path fill="#E9E9E9" fill-opacity="0.2" d="M800 800L240 560L160 640L800 800Z"/>
	<path fill="#E9E9E9" fill-opacity="0.10196079" d="M800 800L160 640L80 720L800 800Z"/>
	<path fill="#E9E9E9" fill-opacity="0.90196079" d="M400 0L0 400L80 400L400 0Z"/>
	<path fill="#E9E9E9" fill-opacity="0.80000001" d="M400 0L80 400L160 400L400 0Z"/>
	<path fill="#E9E9E9" fill-opacity="0.7019608" d="M400 0L160 400L240 400L400 0Z"/>
	<path fill="#E9E9E9" fill-opacity="0.60000002" d="M400 0L240 400L320 400L400 0Z"/>
	<path fill="#E9E9E9" fill-opacity="0.50196081" d="M400 0L320 400L400 400L400 0Z"/>
	<path fill="#E9E9E9" fill-opacity="0.40000001" d="M400 0L400 400L480 400L400 0Z"/>
	<path fill="#E9E9E9" fill-opacity="0.3019608" d="M400 0L480 400L560 400L400 0Z"/>
	<path fill="#E9E9E9" fill-opacity="0.2" d="M400 0L560 400L640 400L400 0Z"/>
	<path fill="#E9E9E9" fill-opacity="0.10196079" d="M400 0L640 400L720 400L400 0Z"/>
	<path fill="#E9E9E9" fill-opacity="0.90196079" d="M400 800L800 400L720 400L400 800Z"/>
	<path fill="#E9E9E9" fill-opacity="0.80000001" d="M400 800L720 400L640 400L400 800Z"/>
	<path fill="#E9E9E9" fill-opacity="0.7019608" d="M400 800L640 400L560 400L400 800Z"/>
	<path fill="#E9E9E9" fill-opacity="0.60000002" d="M400 800L560 400L480 400L400 800Z"/>
	<path fill="#E9E9E9" fill-opacity="0.50196081" d="M400 800L480 400L400 400L400 800Z"/>
	<path fill="#E9E9E9" fill-opacity="0.40000001" d="M400 800L400 400L320 400L400 800Z"/>
	<path fill="#E9E9E9" fill-opacity="0.3019608" d="M400 800L320 400L240 400L400 800Z"/>
	<path fill="#E9E9E9" fill-opacity="0.2" d="M400 800L240 400L160 400L400 800Z"/>
	<path fill="#E9E9E9" fill-opacity="0.10196079" d="M400 800L160 400L80 400L400 800Z"/>
</svg>
